<?xml version="1.0" encoding="UTF-8" standalone="no"?>
<!-- Created with Inkscape (http://www.inkscape.org/) -->

<svg
   xmlns:dc="http://purl.org/dc/elements/1.1/"
   xmlns:cc="http://creativecommons.org/ns#"
   xmlns:rdf="http://www.w3.org/1999/02/22-rdf-syntax-ns#"
   xmlns:svg="http://www.w3.org/2000/svg"
   xmlns="http://www.w3.org/2000/svg"
   xmlns:sodipodi="http://sodipodi.sourceforge.net/DTD/sodipodi-0.dtd"
   xmlns:inkscape="http://www.inkscape.org/namespaces/inkscape"
   width="110mm"
   height="110mm"
   viewBox="0 0 110 110"
   version="1.1"
   id="svg8"
   inkscape:version="0.92.5 (2060ec1f9f, 2020-04-08)"
   sodipodi:docname="drawing.svg">
  <defs
     id="defs2" />
  <sodipodi:namedview
     id="base"
     pagecolor="#ffffff"
     bordercolor="#666666"
     borderopacity="1.0"
     inkscape:pageopacity="0.0"
     inkscape:pageshadow="2"
     inkscape:zoom="0.7"
     inkscape:cx="180.9485"
     inkscape:cy="317.93714"
     inkscape:document-units="mm"
     inkscape:current-layer="layer1"
     showgrid="false"
     inkscape:window-width="1366"
     inkscape:window-height="704"
     inkscape:window-x="0"
     inkscape:window-y="27"
     inkscape:window-maximized="1" />
  <metadata
     id="metadata5">
    <rdf:RDF>
      <cc:Work
         rdf:about="">
        <dc:format>image/svg+xml</dc:format>
        <dc:type
           rdf:resource="http://purl.org/dc/dcmitype/StillImage" />
        <dc:title></dc:title>
      </cc:Work>
    </rdf:RDF>
  </metadata>
  <g
     inkscape:label="Layer 1"
     inkscape:groupmode="layer"
     id="layer1"
     transform="translate(0,-187)"
     style="opacity:1">
    <path
       style="fill:#000000;stroke-width:0.08466667"
       d="m 50.270396,278.95692 c -0.0368,-0.0958 -0.19149,-0.127 -0.6306,-0.127 -0.32003,0 -0.7689,-0.0582 -0.9975,-0.12925 -0.22859,-0.0711 -0.70918,-0.16447 -1.06798,-0.20752 -0.3588,-0.0431 -0.76648,-0.13729 -0.905963,-0.20942 -0.13948,-0.0721 -0.390066,-0.13114 -0.556857,-0.13114 -0.166792,0 -0.444908,-0.0615 -0.618038,-0.13672 -0.173129,-0.0752 -0.543381,-0.18606 -0.822781,-0.24638 -0.52952,-0.11431 -1.17436,-0.32084 -1.608666,-0.51524 -0.1397,-0.0625 -0.411954,-0.14774 -0.605008,-0.18936 -0.193054,-0.0416 -0.439656,-0.13776 -0.548005,-0.21365 -0.108349,-0.0759 -0.274245,-0.13824 -0.36866,-0.13854 -0.09441,-3.1e-4 -0.285961,-0.0763 -0.425661,-0.16878 -0.1397,-0.0925 -0.322652,-0.16847 -0.406559,-0.16877 -0.08391,-3.4e-4 -0.293458,-0.0733 -0.465667,-0.1622 -0.172209,-0.0889 -0.954907,-0.47597 -1.739331,-0.86015 -0.784422,-0.38418 -1.546422,-0.77853 -1.693333,-0.87632 -0.14691,-0.0978 -0.36236,-0.2248 -0.478776,-0.28224 -0.271512,-0.13395 -2.113807,-1.3275 -3.164143,-2.04992 -0.09911,-0.0682 -0.73134,-0.56347 -1.404965,-1.10067 -2.165238,-1.72673 -4.081399,-3.6479 -5.802559,-5.81772 -1.50227,-1.89387 -2.326629,-3.09443 -3.100297,-4.51515 -0.07533,-0.13833 -0.176037,-0.29959 -0.223793,-0.35835 -0.04776,-0.0588 -0.281397,-0.4904 -0.519203,-0.95918 -0.441648,-0.87063 -0.543253,-1.25923 -0.305374,-1.16795 0.06985,0.0268 0.127,0.11794 0.127,0.20252 0,0.0846 0.09525,0.26697 0.211667,0.40533 0.116416,0.13835 0.211666,0.29406 0.211666,0.34603 0,0.052 0.137012,0.28941 0.304471,0.52765 0.167459,0.23825 0.341571,0.5396 0.386916,0.66968 0.04535,0.13008 0.136933,0.25741 0.20353,0.28297 0.0666,0.0255 0.121083,0.11645 0.121083,0.202 0,0.0855 0.09525,0.28465 0.211667,0.44244 0.116417,0.1578 0.211667,0.33665 0.211667,0.39745 0,0.22529 0.32122,0.11308 0.410646,-0.14345 0.0487,-0.1397 0.1249,-0.254 0.169334,-0.254 0.04443,0 0.120348,-0.11348 0.168698,-0.25218 0.04835,-0.1387 0.127704,-0.30062 0.17634,-0.35983 0.402215,-0.48966 0.514315,-0.65749 0.514315,-0.77 0,-0.0714 0.06263,-0.19252 0.139178,-0.26907 0.198442,-0.19844 0.511931,-0.67291 0.574173,-0.86902 0.02913,-0.0918 0.128199,-0.23498 0.220144,-0.31819 0.09194,-0.0832 0.167222,-0.19301 0.167283,-0.244 6.1e-5,-0.051 0.152461,-0.31219 0.338666,-0.58043 0.186206,-0.26825 0.338556,-0.52019 0.338556,-0.55986 0,-0.0397 0.113299,-0.2147 0.251777,-0.38895 0.138477,-0.17426 0.317259,-0.46524 0.397294,-0.64665 0.08003,-0.1814 0.173005,-0.32982 0.206603,-0.32982 0.0336,0 0.196325,-0.24183 0.361619,-0.5374 0.165294,-0.29558 0.359073,-0.58599 0.430621,-0.64537 0.07155,-0.0594 0.130086,-0.17725 0.130086,-0.26193 0,-0.0847 0.03607,-0.17627 0.08016,-0.20351 0.107293,-0.0663 0.597171,-0.79603 0.597171,-0.88954 0,-0.0407 0.08572,-0.18192 0.1905,-0.31392 0.224913,-0.28336 0.364636,-0.49978 0.508615,-0.78783 0.05787,-0.11578 0.171894,-0.27771 0.253385,-0.35984 0.08149,-0.0821 0.148167,-0.18552 0.148167,-0.22975 0,-0.0983 0.485776,-0.82718 0.597172,-0.89603 0.04409,-0.0273 0.08016,-0.11954 0.08016,-0.2051 0,-0.15734 0.561583,-0.71533 0.664127,-0.65988 0.03055,0.0165 0.20794,0.0985 0.394207,0.18216 0.186266,0.0837 0.395816,0.20099 0.465666,0.26069 0.06985,0.0597 0.22225,0.13662 0.338667,0.17092 0.116417,0.0343 0.268817,0.1105 0.338667,0.16933 0.06985,0.0588 0.22225,0.13553 0.338666,0.17043 0.116417,0.0349 0.312799,0.13465 0.436404,0.22168 0.123605,0.087 0.280392,0.15822 0.348415,0.15822 0.06802,0 0.220552,0.0762 0.338951,0.16934 0.1184,0.0931 0.2708,0.16933 0.338667,0.16933 0.06787,0 0.220267,0.0762 0.338667,0.16933 0.118399,0.0931 0.289083,0.16934 0.379295,0.16934 0.09021,0 0.22957,0.0724 0.30968,0.16095 0.08011,0.0885 0.272688,0.18478 0.427949,0.2139 0.15526,0.0291 0.325782,0.10537 0.378938,0.16941 0.05316,0.0641 0.196852,0.14161 0.319326,0.17235 0.122473,0.0307 0.316548,0.12972 0.431278,0.21997 0.11473,0.0902 0.264127,0.16408 0.331994,0.16408 0.06787,0 0.220267,0.0762 0.338667,0.16934 0.1184,0.0931 0.2708,0.16933 0.338667,0.16933 0.06787,0 0.220267,0.0762 0.338666,0.16933 0.1184,0.0931 0.281196,0.16934 0.36177,0.16934 0.08057,0 0.24337,0.0762 0.36177,0.16933 0.118399,0.0931 0.270799,0.16933 0.338666,0.16933 0.06787,0 0.220267,0.0762 0.338667,0.16934 0.1184,0.0931 0.2708,0.16933 0.338667,0.16933 0.06787,0 0.220267,0.0762 0.338666,0.16933 0.1184,0.0931 0.268536,0.16934 0.333636,0.16934 0.0651,0 0.247467,0.0952 0.405261,0.21166 0.157794,0.11642 0.368841,0.21167 0.468994,0.21167 0.100153,0 0.251055,0.0762 0.33534,0.16933 0.08428,0.0931 0.236685,0.16934 0.338666,0.16934 0.101982,0 0.254382,0.0762 0.338667,0.16933 0.08428,0.0931 0.236685,0.16933 0.338667,0.16933 0.101982,0 0.254382,0.0762 0.338666,0.16934 0.08429,0.0931 0.236685,0.16933 0.338667,0.16933 0.101982,0 0.254382,0.0762 0.338667,0.16933 0.08428,0.0931 0.237451,0.16934 0.340371,0.16934 0.102919,0 0.277989,0.071 0.389044,0.15768 0.111055,0.0867 0.297168,0.18722 0.413585,0.22332 0.116416,0.0361 0.30253,0.13658 0.413585,0.22331 0.111054,0.0867 0.257445,0.15769 0.325313,0.15769 0.0679,0 0.22027,0.0762 0.33867,0.16933 0.1184,0.0931 0.2708,0.16933 0.33867,0.16933 0.0679,0 0.22026,0.0762 0.33866,0.16934 0.1184,0.0931 0.2812,0.16933 0.36177,0.16933 0.0806,0 0.24337,0.0762 0.36177,0.16933 0.1184,0.0931 0.2708,0.16934 0.33867,0.16934 0.0679,0 0.22026,0.0762 0.33866,0.16933 0.1184,0.0931 0.2708,0.16933 0.33867,0.16933 0.0679,0 0.22027,0.0762 0.33867,0.16934 0.1184,0.0931 0.2708,0.16933 0.33866,0.16933 0.0679,0 0.21727,0.0738 0.332,0.16409 0.11473,0.0902 0.31989,0.1913 0.45592,0.22457 0.13602,0.0333 0.33818,0.13089 0.44923,0.21692 0.11106,0.086 0.25745,0.15642 0.32532,0.15642 0.0679,0 0.22026,0.0762 0.33866,0.16933 0.1184,0.0931 0.2708,0.16934 0.33867,0.16934 0.0679,0 0.22027,0.0762 0.33867,0.16933 0.11839,0.0931 0.27079,0.16933 0.33866,0.16933 0.0679,0 0.22027,0.0762 0.33867,0.16934 0.1184,0.0931 0.28119,0.16933 0.36177,0.16933 0.0806,0 0.24337,0.0762 0.36177,0.16933 0.1184,0.0931 0.2708,0.16934 0.33866,0.16934 0.0679,0 0.21426,0.071 0.32532,0.15768 0.11105,0.0867 0.29717,0.18722 0.41358,0.22332 0.11642,0.0361 0.30253,0.13658 0.41359,0.22331 0.11105,0.0867 0.26784,0.15769 0.34841,0.15769 0.0806,0 0.24337,0.0762 0.36177,0.16933 0.1184,0.0931 0.2708,0.16933 0.33867,0.16933 0.0679,0 0.22027,0.0762 0.33866,0.16934 0.1184,0.0931 0.2708,0.16933 0.33867,0.16933 0.0679,0 0.22027,0.0762 0.33867,0.16933 0.1184,0.0931 0.26191,0.16934 0.31892,0.16934 0.057,0 0.22245,0.0718 0.36765,0.15968 0.14519,0.0878 0.35924,0.18831 0.47566,0.22331 0.11642,0.035 0.30253,0.13459 0.41358,0.22132 0.11106,0.0867 0.25745,0.15769 0.32532,0.15769 0.0679,0 0.22026,0.0762 0.33866,0.16933 0.1184,0.0931 0.27681,0.1706 0.35202,0.17215 0.16539,0.003 0.51775,0.28443 0.51775,0.41292 0,0.051 0.14968,0.0923 0.33483,0.0923 0.40074,0 0.37396,0.10566 0.50432,-1.98966 0.0493,-0.79164 0.12972,-1.89654 0.17882,-2.45534 0.0491,-0.5588 0.0783,-1.6256 0.0648,-2.37066 l -0.0245,-1.35467 -0.254,-0.12772 c -0.1397,-0.0703 -0.34821,-0.19408 -0.46334,-0.27517 -0.11514,-0.0811 -0.27116,-0.14744 -0.34671,-0.14744 -0.0756,0 -0.20634,-0.0762 -0.29062,-0.16934 -0.0843,-0.0931 -0.21764,-0.16933 -0.29633,-0.16933 -0.0787,0 -0.21205,-0.0762 -0.29634,-0.16933 -0.0843,-0.0931 -0.2184,-0.16934 -0.29804,-0.16934 -0.0796,0 -0.23565,-0.0682 -0.34671,-0.15153 -0.11105,-0.0833 -0.29716,-0.19951 -0.41358,-0.25814 -0.11642,-0.0586 -0.32597,-0.16387 -0.46567,-0.23387 -0.1397,-0.07 -0.31115,-0.16207 -0.381,-0.20461 -0.0699,-0.0426 -0.37465,-0.20063 -0.67733,-0.3513 -0.30268,-0.15067 -0.6412,-0.34248 -0.75225,-0.42624 -0.11106,-0.0838 -0.25745,-0.15231 -0.32532,-0.15231 -0.0679,0 -0.22026,-0.0762 -0.33866,-0.16933 -0.1184,-0.0931 -0.28043,-0.16933 -0.36007,-0.16933 -0.0796,0 -0.21375,-0.0762 -0.29803,-0.16934 -0.0843,-0.0931 -0.21841,-0.16933 -0.29804,-0.16933 -0.0796,0 -0.24167,-0.0762 -0.36007,-0.16933 -0.1184,-0.0931 -0.2708,-0.16934 -0.33866,-0.16934 -0.0679,0 -0.21426,-0.0709 -0.32532,-0.15768 -0.11105,-0.0867 -0.29717,-0.18722 -0.41358,-0.22332 -0.11642,-0.0361 -0.30253,-0.13658 -0.41359,-0.22331 -0.11105,-0.0867 -0.28612,-0.15769 -0.38904,-0.15769 -0.10292,0 -0.25609,-0.0762 -0.34037,-0.16933 -0.0843,-0.0931 -0.23669,-0.16933 -0.33867,-0.16933 -0.10198,0 -0.25438,-0.0762 -0.33867,-0.16934 -0.0843,-0.0931 -0.23745,-0.16933 -0.34037,-0.16933 -0.10292,0 -0.284,-0.0762 -0.40239,-0.16933 -0.1184,-0.0931 -0.25488,-0.16934 -0.30328,-0.16934 -0.0484,0 -0.26714,-0.0952 -0.48608,-0.21166 -0.21895,-0.11642 -0.44491,-0.21167 -0.50212,-0.21167 -0.0572,0 -0.14794,-0.0529 -0.20161,-0.11759 -0.0537,-0.0647 -0.26257,-0.15914 -0.46421,-0.20991 -0.20164,-0.0508 -0.4147,-0.15026 -0.47348,-0.22107 -0.0588,-0.0708 -0.1923,-0.12876 -0.29674,-0.12876 -0.10443,0 -0.28675,-0.0762 -0.40515,-0.16934 -0.1184,-0.0931 -0.28985,-0.16933 -0.381,-0.16933 -0.0912,0 -0.2626,-0.0762 -0.381,-0.16933 -0.1184,-0.0931 -0.28985,-0.16934 -0.381005,-0.16934 -0.09115,0 -0.25659,-0.0707 -0.367645,-0.15706 -0.111055,-0.0864 -0.340965,-0.18265 -0.510911,-0.21391 -0.169945,-0.0313 -0.352278,-0.109 -0.405183,-0.17274 -0.0529,-0.0637 -0.224355,-0.13995 -0.381,-0.16934 -0.156645,-0.0294 -0.329371,-0.10712 -0.383834,-0.17274 -0.05446,-0.0656 -0.220216,-0.14493 -0.368341,-0.17623 -0.148123,-0.0313 -0.388113,-0.129 -0.533309,-0.21711 -0.145197,-0.0881 -0.340084,-0.1602 -0.433083,-0.1602 -0.093,0 -0.265961,-0.0762 -0.38436,-0.16933 -0.1184,-0.0931 -0.298504,-0.16934 -0.400231,-0.16934 -0.101727,0 -0.28183,-0.0762 -0.40023,-0.16933 -0.1184,-0.0931 -0.319296,-0.16933 -0.446436,-0.16933 -0.127141,0 -0.328037,-0.0762 -0.446437,-0.16934 -0.118399,-0.0931 -0.285463,-0.16947 -0.371251,-0.16965 -0.08579,-1.7e-4 -0.277031,-0.0741 -0.424982,-0.16434 -0.147952,-0.0902 -0.403769,-0.1893 -0.568483,-0.2202 -0.164715,-0.0309 -0.342768,-0.10834 -0.395671,-0.17209 -0.05291,-0.0637 -0.235239,-0.14079 -0.405184,-0.1712 -0.169946,-0.0304 -0.370942,-0.10925 -0.446658,-0.17519 -0.07572,-0.0659 -0.285266,-0.14315 -0.465667,-0.17157 -0.180402,-0.0284 -0.418864,-0.12204 -0.529919,-0.20805 -0.111055,-0.086 -0.30525,-0.15637 -0.431545,-0.15637 -0.126295,0 -0.317487,-0.0762 -0.42487,-0.16934 -0.109688,-0.0951 -0.316769,-0.16933 -0.472574,-0.16933 -0.250263,0 -0.545457,-0.17617 -0.54213,-0.32355 0.0062,-0.27436 0.117199,-0.2827 4.174621,-0.31392 4.066086,-0.0313 4.332966,-0.0449 5.089283,-0.25986 0.229644,-0.0653 0.692974,-0.11867 1.029624,-0.11867 0.374256,0 0.820631,-0.0654 1.148801,-0.16824 0.295189,-0.0925 0.73794,-0.16873 0.98388,-0.16933 0.24595,-6e-4 0.66505,-0.0726 0.931339,-0.16006 0.26629,-0.0874 0.76332,-0.18321 1.10451,-0.21286 0.34119,-0.0297 0.72989,-0.11054 0.86376,-0.17977 0.13387,-0.0692 0.52147,-0.16017 0.86131,-0.2021 0.33985,-0.0419 0.770311,-0.13547 0.956581,-0.20788 0.186259,-0.0724 0.50211,-0.13333 0.70187,-0.13538 0.199759,-0.002 0.512569,-0.0799 0.69513,-0.17305 0.182549,-0.0931 0.48597,-0.16933 0.67427,-0.16933 0.18829,0 0.48451,-0.0762 0.658279,-0.16933 0.17377,-0.0931 0.44986,-0.16959 0.61353,-0.16989 0.16367,-3.4e-4 0.41189,-0.0763 0.55159,-0.16878 0.1397,-0.0925 0.36976,-0.16847 0.51126,-0.16877 0.1415,-3.4e-4 0.40673,-0.0768 0.5894,-0.1699 0.18268,-0.0931 0.42886,-0.17052 0.54707,-0.17198 0.11821,-0.001 0.40543,-0.0964 0.63827,-0.21089 0.23283,-0.11453 0.51558,-0.20859 0.62833,-0.20902 0.11275,-4.2e-4 0.26995,-0.0596 0.34933,-0.13139 0.0794,-0.0718 0.29193,-0.15387 0.47233,-0.18229 0.1804,-0.0284 0.41887,-0.12204 0.52992,-0.20805 0.11106,-0.086 0.30594,-0.15638 0.43309,-0.15638 0.12714,0 0.32803,-0.0762 0.44643,-0.16933 0.1184,-0.0931 0.29697,-0.16933 0.39681,-0.16933 0.15548,0 0.5237,-0.15874 1.01942,-0.43948 0.0698,-0.0396 0.24433,-0.12611 0.38774,-0.19233 0.14341,-0.0662 0.31,-0.17976 0.3702,-0.2523 0.0602,-0.0725 0.15242,-0.13248 0.20493,-0.13319 0.0525,-6.7e-4 0.27061,-0.12453 0.48467,-0.27516 0.21406,-0.15063 0.63316,-0.44167 0.93133,-0.64675 0.8546,-0.5878 3.2938,-3.08992 3.2938,-3.37878 0,-0.044 0.0556,-0.12612 0.12364,-0.18256 0.13201,-0.10956 0.63836,-1.09943 0.63836,-1.24794 0,-0.0488 0.0571,-0.13621 0.127,-0.19418 0.0699,-0.058 0.127,-0.2099 0.127,-0.33762 0,-0.12771 0.0762,-0.32908 0.16933,-0.44748 0.0935,-0.11886 0.16934,-0.34348 0.16934,-0.50152 0,-0.15743 0.0762,-0.4357 0.16933,-0.61838 0.0931,-0.18268 0.16933,-0.48723 0.16933,-0.67678 0,-0.18956 0.0586,-0.55298 0.1302,-0.8076 0.0716,-0.25462 0.15276,-0.62488 0.18034,-0.82279 0.0312,-0.22382 0.094,-0.35983 0.16614,-0.35983 0.16265,0 0.17279,-3.2159 0.0102,-3.21999 -0.15336,-0.004 -0.37015,-0.33475 -0.44281,-0.67587 -0.0346,-0.16233 -0.11039,-0.35229 -0.16846,-0.42214 -0.0581,-0.0698 -0.14716,-0.251 -0.19798,-0.40255 -0.0508,-0.15156 -0.22293,-0.47541 -0.38249,-0.71967 -0.15955,-0.24426 -0.30435,-0.4878 -0.32177,-0.54119 -0.13178,-0.40402 -2.16251,-2.44026 -2.71585,-2.72324 -0.21796,-0.11146 -0.43068,-0.23841 -0.74816,-0.44648 -0.11825,-0.0775 -0.34368,-0.16918 -0.50094,-0.20372 -0.15727,-0.0345 -0.40341,-0.13444 -0.54699,-0.22199 -0.14358,-0.0876 -0.35735,-0.15934 -0.47505,-0.15951 -0.1177,-1.7e-4 -0.30209,-0.062 -0.40977,-0.13744 -0.10767,-0.0754 -0.41143,-0.16699 -0.675,-0.20349 -0.26358,-0.0365 -0.63163,-0.12553 -0.8179,-0.19783 -0.18627,-0.0723 -0.53918,-0.13313 -0.78424,-0.13517 -0.24506,-0.002 -0.72055,-0.0799 -1.05663,-0.17305 -0.45413,-0.12585 -0.87242,-0.16946 -1.62876,-0.16984 -0.55974,-2.7e-4 -1.3987,-0.0585 -1.86437,-0.12939 -0.46567,-0.0709 -1.19909,-0.15261 -1.62983,-0.1816 -0.57475,-0.0387 -0.78317,-0.0831 -0.78317,-0.16694 0,-0.094 -0.61462,-0.11423 -3.47134,-0.11423 -2.86562,0 -3.47133,0.02 -3.47133,0.11482 0,0.0821 -0.18751,0.13047 -0.65789,0.1697 -0.36184,0.0302 -0.955746,0.11185 -1.319785,0.1815 -0.364039,0.0697 -0.978993,0.12664 -1.366564,0.12664 -0.466641,0 -0.885973,0.0568 -1.241386,0.16824 -0.295191,0.0925 -0.737687,0.16874 -0.983325,0.16934 -0.245638,5.9e-4 -0.663418,0.0773 -0.928399,0.17042 -0.264981,0.0931 -0.647491,0.16934 -0.850023,0.16934 -0.202531,0 -0.546752,0.0731 -0.764934,0.16256 -0.218183,0.0894 -0.606246,0.18694 -0.862362,0.21673 -0.256117,0.0298 -0.547199,0.10717 -0.646852,0.17195 -0.09965,0.0648 -0.385401,0.14437 -0.635,0.17687 -0.249598,0.0325 -0.586601,0.12961 -0.748894,0.21582 -0.162295,0.0862 -0.400557,0.15673 -0.529474,0.15673 -0.128916,0 -0.376566,0.0762 -0.550334,0.16934 -0.173766,0.0931 -0.430802,0.16958 -0.571193,0.16989 -0.140389,3.4e-4 -0.369553,0.0762 -0.509253,0.16877 -0.1397,0.0925 -0.3683,0.16872 -0.508001,0.16934 -0.1397,5.9e-4 -0.3683,0.0768 -0.508,0.16933 -0.1397,0.0925 -0.363802,0.16847 -0.498006,0.16878 -0.134204,3.3e-4 -0.362804,0.0721 -0.508,0.15958 -0.145196,0.0875 -0.40304,0.18373 -0.572986,0.21391 -0.169946,0.0302 -0.355869,0.11136 -0.413163,0.1804 -0.05729,0.069 -0.250902,0.14898 -0.430242,0.17765 -0.17934,0.0287 -0.369557,0.10454 -0.422705,0.16858 -0.05315,0.064 -0.139591,0.11658 -0.192098,0.11675 -0.119242,4.3e-4 -0.95519,0.41555 -1.236139,0.61389 -0.115135,0.0813 -0.271156,0.14779 -0.346711,0.14779 -0.07555,0 -0.206331,0.0762 -0.290616,0.16934 -0.08428,0.0931 -0.186257,0.16933 -0.226605,0.16933 -0.07606,0 -0.687352,0.38399 -0.914055,0.57417 -0.07114,0.0597 -0.419391,0.33222 -0.773898,0.60563 -0.354508,0.27342 -0.734132,0.62464 -0.843609,0.78049 -0.109477,0.15586 -0.229001,0.29608 -0.265609,0.3116 -0.03661,0.0155 -0.06656,0.0822 -0.06656,0.14817 0,0.066 -0.06668,0.1879 -0.148166,0.27096 -0.204158,0.20808 -0.613421,0.81419 -0.615717,0.91186 -0.001,0.0441 -0.07639,0.17537 -0.16745,0.29179 -0.09106,0.11641 -0.166415,0.28185 -0.16745,0.36764 -10e-4,0.0858 -0.07808,0.25285 -0.171217,0.37125 -0.09313,0.1184 -0.169333,0.31042 -0.169333,0.4267 0,0.11628 -0.08128,0.34293 -0.180621,0.50367 -0.157046,0.25411 -0.181912,0.42875 -0.1905,1.33792 l -0.0099,1.04567 0.251654,0.26268 c 0.138409,0.14448 0.347959,0.2844 0.465666,0.31094 0.117707,0.0265 0.376865,0.12424 0.575906,0.21711 0.341889,0.15952 0.496324,0.1667 2.794,0.13003 1.605795,-0.0256 2.532787,-0.074 2.728441,-0.14254 0.162983,-0.057 0.783702,-0.13614 1.379374,-0.17577 0.595672,-0.0396 1.262422,-0.12833 1.481667,-0.19713 0.219244,-0.0688 0.777163,-0.14698 1.239822,-0.17373 0.462657,-0.0267 0.8768,-0.0842 0.920317,-0.12776 0.137179,-0.13718 -0.53141,-0.26095 -1.422847,-0.2634 -0.659059,-0.002 -0.928449,-0.0394 -1.215745,-0.16981 -0.202995,-0.0921 -0.474081,-0.16747 -0.602417,-0.16747 -0.331113,0 -0.679505,-0.29834 -0.679505,-0.58188 0,-0.27824 0.138784,-0.43412 0.386516,-0.43412 0.100823,0 0.280188,-0.0762 0.398587,-0.16934 0.1184,-0.0931 0.266413,-0.17052 0.328919,-0.17198 0.06251,-0.001 0.304145,-0.0964 0.536978,-0.21089 0.232834,-0.11453 0.471097,-0.20859 0.529474,-0.20902 0.05838,-4.2e-4 0.248313,-0.077 0.42208,-0.17011 0.173766,-0.0931 0.411753,-0.16958 0.528859,-0.16989 0.117107,-3.4e-4 0.327221,-0.0763 0.466921,-0.16877 0.140624,-0.0931 0.397226,-0.16847 0.574873,-0.16878 0.17648,-3e-4 0.470237,-0.0768 0.652794,-0.16989 0.211389,-0.10784 0.499005,-0.16933 0.792042,-0.16933 0.253066,0 0.702259,-0.0722 0.998205,-0.16046 0.367777,-0.10966 0.940051,-0.17705 1.808086,-0.21292 0.6985,-0.0289 1.4224,-0.0902 1.608667,-0.13643 0.186266,-0.0462 0.910425,-0.10831 1.609242,-0.13807 1.136551,-0.0484 1.283259,-0.0388 1.390808,0.0908 0.104707,0.12616 0.100444,0.17969 -0.03301,0.41448 -0.08428,0.14829 -0.195796,0.30772 -0.247808,0.35428 -0.128924,0.11543 -0.560234,0.75638 -0.560234,0.83255 0,0.0338 -0.1524,0.25424 -0.338667,0.48988 -0.186267,0.23565 -0.338667,0.46313 -0.338667,0.50551 0,0.0424 -0.06668,0.14437 -0.148166,0.22663 -0.202713,0.20462 -0.698557,0.919 -0.880524,1.2686 -0.05454,0.10478 -0.128442,0.1905 -0.164235,0.1905 -0.07011,0 -0.585075,0.73108 -0.585075,0.83062 0,0.0331 -0.144573,0.21213 -0.321273,0.39792 -0.176701,0.18579 -0.45881,0.54734 -0.626909,0.80346 -0.168099,0.25612 -0.499541,0.67522 -0.736539,0.93133 -0.236997,0.25612 -0.431138,0.49327 -0.431425,0.52701 -2.54e-4,0.0337 -0.239412,0.35758 -0.531391,0.71966 -0.291979,0.36209 -0.621674,0.81073 -0.732654,0.997 -0.110979,0.18627 -0.243562,0.37677 -0.294628,0.42333 -0.169008,0.15412 -0.558514,0.7069 -0.558514,0.79264 0,0.0463 -0.06263,0.1469 -0.139179,0.22345 -0.188226,0.18822 -0.538154,0.7094 -0.538154,0.80151 0,0.0409 -0.08572,0.18241 -0.1905,0.31441 -0.241273,0.30397 -0.369834,0.51158 -0.514789,0.83133 -0.06333,0.1397 -0.1782,0.30629 -0.255263,0.3702 -0.07706,0.0639 -0.140115,0.17092 -0.140115,0.2378 0,0.1445 -0.50208,0.789 -0.61465,0.789 -0.04307,0 -0.175181,0.0762 -0.29358,0.16933 -0.1184,0.0931 -0.29586,0.17018 -0.394355,0.17122 -0.09849,0.001 -0.274332,0.0764 -0.390749,0.16745 -0.116416,0.0911 -0.31629,0.16641 -0.444163,0.16745 -0.127872,10e-4 -0.451722,0.0746 -0.719666,0.16357 -0.286433,0.0951 -0.866616,0.18367 -1.408048,0.21503 -0.558172,0.0323 -1.018495,0.10382 -1.168719,0.18151 -0.136312,0.0705 -0.445817,0.15147 -0.687789,0.17996 -0.717499,0.0845 -1.071327,0.32308 -1.793087,1.20917 -0.360329,0.44237 -0.688945,0.81697 -0.730259,0.83245 -0.06545,0.0245 -0.431344,0.6139 -0.838034,1.3499 -0.07009,0.12685 -0.251062,0.41351 -0.402167,0.63704 -0.205798,0.30443 -0.274734,0.4991 -0.274734,0.77584 0,0.33594 0.03222,0.39312 0.355346,0.63075 0.19544,0.14373 0.408506,0.26133 0.473478,0.26133 0.06497,0 0.215006,0.0762 0.333406,0.16933 0.1184,0.0931 0.284085,0.16933 0.368191,0.16933 0.0841,0 0.178868,0.042 0.210584,0.0933 0.03172,0.0513 0.18744,0.14753 0.346051,0.2138 0.18324,0.0766 0.339955,0.22864 0.429829,0.41711 0.133753,0.28048 0.132904,0.31144 -0.01562,0.56936 -0.08638,0.15002 -0.227308,0.34092 -0.313164,0.42422 -0.08586,0.0833 -0.158632,0.19761 -0.161723,0.254 -0.0031,0.0564 -0.136291,0.27399 -0.295998,0.48354 -0.159707,0.20955 -0.330842,0.47503 -0.380299,0.58995 -0.04946,0.11492 -0.221057,0.36898 -0.381335,0.56458 -0.160277,0.1956 -0.291414,0.38944 -0.291414,0.43077 0,0.068 -0.202201,0.3714 -0.551678,0.8277 -0.164041,0.21418 -0.62816,0.87777 -1.038585,1.48495 -0.306893,0.45402 -0.424087,0.60676 -0.698945,0.91095 -0.227743,0.25204 -0.589444,0.76526 -0.589863,0.83695 -2.54e-4,0.038 -0.136973,0.21785 -0.303889,0.39961 -0.166916,0.18175 -0.497929,0.61296 -0.735583,0.95825 -0.419587,0.60962 -0.659469,0.83605 -0.769324,0.7262 -0.02941,-0.0294 -0.05486,0.0767 -0.05656,0.23581 -0.003,0.28513 -0.0062,0.2826 -0.221307,-0.17639 -0.120018,-0.25612 -0.285862,-0.61807 -0.368545,-0.80433 -0.08268,-0.18627 -0.249795,-0.56235 -0.371361,-0.83573 -0.121566,-0.27339 -0.221029,-0.54065 -0.221029,-0.59392 0,-0.0533 -0.0762,-0.23903 -0.169333,-0.4128 -0.09313,-0.17377 -0.169334,-0.38422 -0.169334,-0.46768 0,-0.0834 -0.0762,-0.3012 -0.169333,-0.48387 -0.09313,-0.18268 -0.171006,-0.39076 -0.173049,-0.4624 -0.002,-0.0716 -0.06297,-0.28267 -0.13538,-0.46894 -0.07242,-0.18626 -0.182759,-0.54821 -0.245207,-0.80433 -0.06245,-0.25612 -0.171305,-0.61807 -0.241904,-0.80433 -0.0706,-0.18627 -0.130033,-0.43524 -0.132077,-0.55327 -0.002,-0.11803 -0.07992,-0.4314 -0.17305,-0.69639 -0.09313,-0.26498 -0.171005,-0.64466 -0.173049,-0.84373 -0.002,-0.19907 -0.06143,-0.51435 -0.131962,-0.70061 -0.07054,-0.18627 -0.150536,-0.67534 -0.177779,-1.08683 -0.0341,-0.51511 -0.0853,-0.76188 -0.164371,-0.79222 -0.09484,-0.0364 -0.114839,-0.89606 -0.114839,-4.93662 0,-4.27083 0.01614,-4.89874 0.127,-4.94128 0.09433,-0.0362 0.127,-0.18624 0.127,-0.58328 0,-0.29399 0.05834,-0.74286 0.129648,-0.99749 0.07131,-0.25462 0.164046,-0.72965 0.206089,-1.05562 0.04204,-0.32596 0.136102,-0.73431 0.20902,-0.90744 0.07292,-0.17313 0.134249,-0.42078 0.136293,-0.55034 0.002,-0.12955 0.06221,-0.38795 0.133711,-0.57422 0.0715,-0.18626 0.168266,-0.5277 0.215042,-0.75875 0.04678,-0.23104 0.134417,-0.51679 0.194759,-0.635 0.06034,-0.1182 0.135154,-0.34826 0.166251,-0.51125 0.0311,-0.16298 0.12576,-0.46778 0.210361,-0.67733 0.0846,-0.20955 0.201148,-0.51435 0.258993,-0.67733 0.05784,-0.16299 0.159524,-0.44874 0.225954,-0.635 0.06643,-0.18627 0.181841,-0.47202 0.256468,-0.635 0.07463,-0.16299 0.203691,-0.44874 0.286807,-0.635 0.332356,-0.74483 1.722226,-3.50491 2.025155,-4.02167 1.292915,-2.20556 3.181395,-4.72997 4.87045,-6.51054 2.50808,-2.64397 4.45499,-4.26506 7.471833,-6.22139 1.163387,-0.75443 2.954503,-1.73246 4.1275,-2.25381 0.232834,-0.10349 0.613834,-0.27436 0.846667,-0.37971 0.232833,-0.10536 0.632883,-0.27668 0.889,-0.38073 0.256117,-0.10404 0.628611,-0.26131 0.827765,-0.34949 0.199154,-0.0882 0.428318,-0.16033 0.509254,-0.16033 0.08094,0 0.289328,-0.0762 0.463094,-0.16933 0.173768,-0.0931 0.401803,-0.17017 0.506747,-0.1712 0.104944,-0.001 0.343207,-0.071 0.529473,-0.1554 0.186267,-0.0844 0.504592,-0.17995 0.707388,-0.21222 0.202797,-0.0323 0.473064,-0.11265 0.600593,-0.1786 0.12753,-0.066 0.437855,-0.14624 0.689613,-0.17842 0.251757,-0.0322 0.561559,-0.11098 0.68845,-0.17509 0.126887,-0.0641 0.469797,-0.1409 0.761997,-0.17065 0.29221,-0.0297 0.68369,-0.10758 0.86996,-0.17297 0.18627,-0.0654 0.65299,-0.14147 1.03717,-0.16908 0.50556,-0.0363 0.6985,-0.0818 0.6985,-0.16462 0,-0.0948 0.85548,-0.11442 4.99533,-0.11442 4.38385,0 4.99534,0.0155 4.99534,0.127 0,0.0984 0.11138,0.127 0.49445,0.127 0.27195,0 0.77678,0.0714 1.12184,0.15865 0.34505,0.0873 0.85593,0.18644 1.13528,0.2204 0.27936,0.034 0.60321,0.10978 0.71967,0.1685 0.11647,0.0587 0.41774,0.13309 0.6695,0.16528 0.25175,0.0322 0.55801,0.11037 0.68058,0.17375 0.12256,0.0634 0.41188,0.15353 0.64292,0.20033 0.42519,0.0861 0.94114,0.25222 1.66345,0.53551 0.21818,0.0856 0.46583,0.15583 0.55033,0.15614 0.0845,3e-4 0.26794,0.0763 0.40764,0.16877 0.1397,0.0925 0.35745,0.16847 0.48389,0.16878 0.13077,3.1e-4 0.34979,0.10473 0.508,0.24217 0.26664,0.23164 0.78244,0.57939 1.26946,0.85586 0.12614,0.0716 0.5198,0.30164 0.8748,0.51119 0.35499,0.20955 0.75941,0.44044 0.8987,0.51307 0.13929,0.0726 0.27904,0.16984 0.31054,0.216 0.0315,0.0462 0.64783,0.58297 1.36961,1.19292 2.064904,1.74495 3.015454,2.78843 4.290034,4.70947 0.55964,0.84347 1.46731,2.68027 1.46731,2.9693 0,0.078 0.0601,0.23367 0.13366,0.34587 0.0735,0.1122 0.16404,0.40614 0.20116,0.65319 0.0371,0.24705 0.13273,0.69182 0.21247,0.98838 0.20316,0.75563 0.1542,4.50648 -0.0663,5.08062 -0.0783,0.20376 -0.1423,0.52054 -0.1423,0.70397 0,0.18342 -0.0729,0.512 -0.16206,0.73019 -0.0891,0.21818 -0.18452,0.53004 -0.21197,0.69302 -0.0275,0.16299 -0.10287,0.41064 -0.16759,0.55034 -0.0647,0.1397 -0.20247,0.4826 -0.30611,0.762 -0.38648,1.04183 -1.11489,2.4251 -1.9394,3.683 -1.19137,1.81757 -3.663244,4.54485 -4.986074,5.50128 -0.28827,0.20842 -0.52413,0.40845 -0.52413,0.4445 0,0.12363 0.48959,0.0655 0.85859,-0.10192 0.20299,-0.0921 0.45632,-0.16831 0.56295,-0.16934 0.10663,-0.001 0.34324,-0.0781 0.52579,-0.17119 0.18256,-0.0931 0.40068,-0.16933 0.48472,-0.16933 0.084,0 0.29496,-0.0762 0.46873,-0.16934 0.17377,-0.0931 0.35989,-0.16933 0.41362,-0.16933 0.0861,0 0.823394,-0.32429 1.172934,-0.51587 0.0699,-0.0383 0.40484,-0.21214 0.74442,-0.38635 0.33959,-0.17421 0.65858,-0.36633 0.70887,-0.42693 0.0503,-0.0606 0.12353,-0.11018 0.16275,-0.11018 0.0392,0 0.23457,-0.11568 0.43413,-0.25707 0.19956,-0.14139 0.49618,-0.34542 0.65917,-0.45341 0.30947,-0.20504 1.81197,-1.65157 2.25814,-2.17402 0.31223,-0.36561 0.99838,-1.39758 1.12283,-1.68873 0.0495,-0.11574 0.1267,-0.26759 0.17161,-0.33744 0.11253,-0.17503 0.45181,-0.95546 0.68094,-1.56633 0.1048,-0.2794 0.24235,-0.64135 0.30567,-0.80434 0.0633,-0.16298 0.15184,-0.4681 0.19673,-0.67805 0.0449,-0.20994 0.14068,-0.52304 0.21285,-0.69578 0.0722,-0.17273 0.13123,-0.44043 0.13123,-0.59488 0,-0.15445 0.0762,-0.49762 0.16933,-0.76261 0.0931,-0.26498 0.1696,-0.64466 0.16993,-0.84373 3.3e-4,-0.19907 0.0765,-0.67869 0.16933,-1.06581 0.0928,-0.38712 0.16874,-0.91851 0.16874,-1.18085 0,-0.70112 0.17656,-2.40996 0.26673,-2.58145 0.0454,-0.0863 0.1751,-0.14817 0.31077,-0.14817 0.20269,0 0.31003,0.11796 0.8282,0.91017 0.92364,1.41209 0.90729,1.38565 1.32154,2.13783 0.0898,0.16298 0.2549,0.44873 0.36697,0.635 0.11207,0.18627 0.24275,0.43392 0.2904,0.55033 0.0476,0.11642 0.12502,0.26882 0.17195,0.33867 0.18152,0.27016 0.49612,1.06433 0.87202,2.20133 0.16165,0.48895 0.33227,1.0033 0.37916,1.143 0.34748,1.0352 0.44163,1.39845 0.44161,1.70386 -1e-5,0.19205 0.0581,0.51385 0.12908,0.7151 0.071,0.20125 0.15116,0.71087 0.17812,1.13248 0.027,0.42161 0.10222,1.08588 0.16724,1.47615 0.13206,0.79273 0.14916,3.00781 0.0288,3.73541 -0.0423,0.25612 -0.11608,0.85928 -0.16385,1.34037 -0.0478,0.48108 -0.12519,0.94637 -0.17208,1.03397 -0.0469,0.0876 -0.13844,0.41789 -0.20345,0.73397 -0.12695,0.61721 -0.31837,1.21216 -0.56924,1.7693 -0.0862,0.19137 -0.15668,0.38361 -0.15668,0.4272 0,0.23703 -1.1294,2.18514 -1.71036,2.95019 -0.72124,0.9498 -3.35822,3.28097 -3.94668,3.48899 -0.0784,0.0277 -0.20152,0.10064 -0.2735,0.16202 -0.21233,0.18107 -2.48082,1.30052 -2.63696,1.30129 -0.0787,4.2e-4 -0.16611,0.0378 -0.19414,0.0832 -0.028,0.0454 -0.2303,0.13674 -0.4495,0.20308 -0.21919,0.0663 -0.51282,0.18138 -0.65252,0.25567 -0.1397,0.0743 -0.34125,0.13531 -0.44788,0.1356 -0.10663,2.8e-4 -0.34323,0.0767 -0.52579,0.16985 -0.18256,0.0931 -0.43821,0.17017 -0.56813,0.17119 -0.12991,0.001 -0.40229,0.0772 -0.60528,0.16934 -0.203,0.0921 -0.49231,0.16747 -0.64292,0.16747 -0.1506,0 -0.47982,0.0704 -0.73158,0.15643 -0.25177,0.086 -0.719664,0.18283 -1.039774,0.2151 -0.32011,0.0323 -0.81541,0.11372 -1.10067,0.18099 -0.28526,0.0673 -0.66788,0.12287 -0.85026,0.12356 -0.18239,6.8e-4 -0.3055,0.0274 -0.27359,0.0593 0.0972,0.0972 0.66556,0.29281 1.1132,0.38314 0.23283,0.047 0.62675,0.15744 0.87537,0.24546 0.24862,0.088 0.59498,0.16004 0.769714,0.16004 0.17472,0 0.5047,0.0604 0.7333,0.13423 0.22859,0.0738 1.08237,0.18727 1.89729,0.25209 1.79951,0.14314 4.00105,0.0356 4.68096,-0.22876 0.22292,-0.0867 0.48256,-0.15756 0.57697,-0.15756 0.0944,0 0.36924,-0.0802 0.6107,-0.17814 1.24652,-0.50579 1.4652,-0.59882 1.58203,-0.67298 0.0699,-0.0443 0.22225,-0.1186 0.33867,-0.16503 0.11642,-0.0464 0.26882,-0.12281 0.33867,-0.16975 0.0699,-0.0469 0.22225,-0.13268 0.33866,-0.19055 0.30369,-0.15096 1.6211,-1.04042 2.4119,-1.62841 0.37192,-0.27655 1.07677,-0.89357 1.56633,-1.37117 0.67466,-0.65818 0.94508,-0.86896 1.11723,-0.87083 0.14511,-0.002 0.24445,0.0521 0.27509,0.14864 0.0946,0.29792 -0.26191,2.27019 -0.60776,3.36255 -0.0737,0.23284 -0.1611,0.57574 -0.19419,0.762 -0.0331,0.18627 -0.12557,0.52917 -0.20552,0.762 -0.26736,0.77862 -0.31788,0.92923 -0.44029,1.31234 -0.067,0.20955 -0.17686,0.48886 -0.24426,0.62069 -0.0674,0.13183 -0.12288,0.28423 -0.1233,0.33867 -4.2e-4,0.0544 -0.0945,0.28947 -0.20902,0.5223 -0.11454,0.23284 -0.20944,0.47461 -0.21089,0.53727 -0.001,0.0627 -0.0562,0.21507 -0.12165,0.33867 -0.0654,0.1236 -0.21357,0.43428 -0.32914,0.6904 -0.21001,0.46535 -0.64735,1.36617 -0.92859,1.91265 -0.082,0.15931 -0.31058,0.53318 -0.508,0.83084 -0.19741,0.29766 -0.45417,0.70043 -0.57058,0.89504 -0.27937,0.46709 -1.79046,1.90738 -2.71282,2.58573 -0.81559,0.59984 -1.84907,1.23236 -2.3672,1.44882 -0.0699,0.0292 -0.32467,0.14348 -0.56626,0.25399 -0.24159,0.11051 -0.48124,0.20093 -0.53254,0.20093 -0.0513,0 -0.24265,0.0762 -0.4252,0.16933 -0.18256,0.0931 -0.40548,0.16933 -0.49539,0.16933 -0.0899,0 -0.32954,0.0754 -0.53254,0.16749 -0.20299,0.0921 -0.50242,0.16879 -0.66541,0.17041 -0.16298,0.002 -0.54398,0.0831 -0.84666,0.18111 -0.49807,0.16123 -0.74736,0.17818 -2.62467,0.17843 -1.900304,2.5e-4 -2.116294,-0.0148 -2.574424,-0.17925 -0.27505,-0.0987 -0.5989,-0.18036 -0.71967,-0.18138 -0.12077,-10e-4 -0.38566,-0.0772 -0.58866,-0.16933 -0.20299,-0.0921 -0.43216,-0.16748 -0.50925,-0.16748 -0.0771,0 -0.28235,-0.0762 -0.45611,-0.16933 -0.17377,-0.0931 -0.35654,-0.16933 -0.40616,-0.16933 -0.14064,0 -2.42707,-1.0827 -2.65154,-1.25559 -0.22623,-0.17424 -0.81693,-0.46389 -0.85941,-0.42141 -0.0256,0.0256 -0.003,0.15615 0.051,0.29022 0.19268,0.4819 0.42885,1.00815 0.50836,1.13278 0.0446,0.0699 0.12794,0.22287 0.18527,0.34005 0.48095,0.983 1.721,2.36744 2.69201,3.00545 0.5726,0.37624 1.5867,0.88783 1.7599,0.88783 0.0539,0 0.24011,0.0762 0.41388,0.16933 0.17377,0.0931 0.4308,0.17017 0.57119,0.1712 0.14039,10e-4 0.42134,0.0772 0.62433,0.16934 0.203,0.0921 0.49488,0.16746 0.64863,0.16746 0.15375,0 0.52106,0.0757 0.81625,0.16825 0.29519,0.0925 0.708164,0.16949 0.917714,0.17103 0.20955,0.002 0.62865,0.0436 0.93134,0.0935 0.30268,0.0499 0.81162,0.10403 1.13098,0.12033 0.31936,0.0163 0.59608,0.0451 0.61494,0.0639 0.0562,0.0562 -0.21776,0.65296 -0.29979,0.65296 -0.0416,0 -0.46968,0.29528 -0.95136,0.65617 -1.02127,0.76518 -1.0225,0.76606 -1.946194,1.38202 -0.95989,0.6401 -1.18001,0.77958 -1.42725,0.90439 -0.11642,0.0588 -0.36407,0.19749 -0.55033,0.30828 -0.18627,0.11078 -0.89112,0.4733 -1.56634,0.8056 -0.67521,0.33229 -1.36856,0.67949 -1.54077,0.77153 -0.17221,0.0921 -0.37237,0.16735 -0.44481,0.16735 -0.0724,0 -0.27387,0.0762 -0.44764,0.16933 -0.17376,0.0931 -0.38527,0.16933 -0.47,0.16933 -0.0847,0 -0.3205,0.0758 -0.52391,0.1685 -0.25238,0.11497 -0.64752,0.18574 -1.24419,0.22282 -0.48089,0.0299 -1.00769,0.10902 -1.17068,0.17585 -0.34603,0.14187 -2.96254,0.15889 -3.73157,0.0243 -0.25269,-0.0442 -0.76423,-0.12346 -1.13676,-0.17606 -0.37253,-0.0526 -0.81068,-0.14801 -0.97367,-0.21199 -0.16298,-0.064 -0.48218,-0.15623 -0.70933,-0.20498 -0.22715,-0.0487 -0.4928,-0.14453 -0.59034,-0.21285 -0.0975,-0.0683 -0.24321,-0.12421 -0.32372,-0.12421 -0.2065,0 -1.70705,-0.79785 -2.31361,-1.23015 -0.52587,-0.3748 -1.44253,-1.24058 -2.032,-1.91923 -0.3032,-0.34907 -0.82322,-1.084 -1.45595,-2.05762 -0.27571,-0.42427 -1.34171,-2.50997 -1.40339,-2.74584 -0.056,-0.21401 -0.19014,-0.22705 -0.2778,-0.027 -0.0357,0.0815 -0.082,0.81837 -0.10288,1.63749 -0.0336,1.31825 -0.0175,1.56842 0.14053,2.17793 0.0982,0.37873 0.17849,0.76324 0.17849,0.85448 0,0.18938 0.39612,1.18091 0.64055,1.60334 0.39236,0.67811 1.32174,1.81668 2.17054,2.6591 0.50439,0.50059 0.95316,0.91016 0.99727,0.91016 0.10023,0 0.50964,0.59393 0.50964,0.73933 0,0.0842 -0.52731,0.10734 -2.44627,0.10734 -2.09637,0 -2.45325,-0.0182 -2.49501,-0.127 z m 41.549964,-36.9093 c -0.0667,-0.17383 0.0272,-0.41165 0.13606,-0.3444 0.0469,0.029 0.0853,0.1244 0.0853,0.21203 0,0.20859 -0.15622,0.30202 -0.22132,0.13237 z m -51.277183,-3.1429 c -0.106874,-0.11056 -0.0706,-0.44836 0.05585,-0.52009 0.129839,-0.0737 0.981074,-1.11446 0.981712,-1.20033 2.54e-4,-0.029 0.106942,-0.16701 0.237173,-0.30671 0.130229,-0.1397 0.463226,-0.5588 0.739993,-0.93134 0.276768,-0.37253 0.525131,-0.69638 0.551917,-0.71966 0.02679,-0.0233 0.233266,-0.30904 0.458843,-0.635 0.225577,-0.32597 0.565811,-0.79054 0.756078,-1.03238 0.703412,-0.8941 1.982087,-2.74241 2.741603,-3.96296 0.9584,-1.54016 1.40605,-3.03743 1.19289,-3.98993 -0.0799,-0.35685 -0.0784,-0.47582 0.007,-0.57885 0.16203,-0.19523 0.88403,-0.3803 1.69333,-0.43404 0.39729,-0.0264 1.02714,-0.11169 1.39968,-0.18957 1.00406,-0.20991 7.13906,-0.21035 7.83166,-6e-4 0.25612,0.0776 0.76508,0.16527 1.13103,0.19487 0.36595,0.0296 0.8041,0.10576 0.97366,0.16925 0.16957,0.0635 0.47976,0.13745 0.68931,0.16437 0.68958,0.0886 1.97846,0.52816 2.83551,0.96711 0.59351,0.30398 0.95952,0.55975 1.38335,0.9667 0.42577,0.40882 0.56575,0.65318 0.64272,1.12199 0.0714,0.43468 -0.0735,1.45774 -0.23209,1.63865 -0.0672,0.0766 -0.1495,0.229 -0.18295,0.33858 -0.0658,0.21559 -0.21242,0.44023 -0.82904,1.27034 -0.3797,0.51117 -0.77675,0.85985 -1.24683,1.09493 -0.11642,0.0582 -0.36407,0.19477 -0.55033,0.30344 -0.3691,0.21534 -2.56202,1.31797 -3.175,1.59644 -0.20955,0.0952 -0.55245,0.24871 -0.762,0.34115 -0.20955,0.0925 -0.5219,0.23964 -0.69411,0.32711 -0.17221,0.0875 -0.36271,0.15937 -0.42333,0.1598 -0.0606,4.2e-4 -0.30073,0.0945 -0.53356,0.20902 -0.23284,0.11453 -0.4711,0.20943 -0.52948,0.21089 -0.0584,0.001 -0.24831,0.0788 -0.42208,0.17198 -0.17376,0.0931 -0.38331,0.16933 -0.46566,0.16933 -0.0824,0 -0.2919,0.0762 -0.46567,0.16934 -0.17377,0.0931 -0.39327,0.16933 -0.48778,0.16933 -0.0945,0 -0.31401,0.0762 -0.48778,0.16933 -0.17377,0.0931 -0.4018,0.17017 -0.50675,0.1712 -0.10494,0.001 -0.35689,0.0772 -0.55988,0.16933 -0.203,0.0921 -0.4697,0.16771 -0.59267,0.16799 -0.12297,2.6e-4 -0.33789,0.0603 -0.47759,0.13342 -0.1397,0.0731 -0.46278,0.17166 -0.71796,0.21903 -0.25517,0.0474 -0.56001,0.13582 -0.67742,0.19653 -0.1174,0.0607 -0.44202,0.13822 -0.72137,0.17223 -0.27935,0.034 -0.60748,0.11243 -0.72918,0.17425 -0.12169,0.0618 -0.50269,0.15124 -0.84666,0.1987 -0.34398,0.0475 -0.83374,0.14443 -1.08836,0.21548 -0.25462,0.0711 -0.61657,0.13007 -0.80433,0.13117 -0.18776,10e-4 -0.62456,0.0773 -0.970655,0.16933 -0.346102,0.092 -0.879502,0.16794 -1.185334,0.16867 -0.305833,7.6e-4 -0.784659,0.0603 -1.064059,0.13241 -0.553927,0.14295 -3.761532,0.27356 -3.8735,0.15773 z m 50.205013,-5.84651 c -0.0897,-0.0897 -0.0747,-0.60728 0.0192,-0.66533 0.0771,-0.0476 0.25825,0.20254 0.25825,0.35663 0,0.13268 -0.21468,0.37151 -0.27749,0.3087 z M 72.436786,209.39588 c -0.0313,-0.0506 -0.0237,-0.12524 0.0169,-0.16581 0.10013,-0.10013 0.32051,0.0456 0.24753,0.16372 -0.074,0.11967 -0.19117,0.12059 -0.26441,0.002 z"
       id="path828"
       inkscape:connector-curvature="0" />
  </g>
</svg>
