<?xml version="1.0" encoding="UTF-8" standalone="no"?>
<!-- Created with Inkscape (http://www.inkscape.org/) -->

<svg
   xmlns:dc="http://purl.org/dc/elements/1.1/"
   xmlns:cc="http://creativecommons.org/ns#"
   xmlns:rdf="http://www.w3.org/1999/02/22-rdf-syntax-ns#"
   xmlns:svg="http://www.w3.org/2000/svg"
   xmlns="http://www.w3.org/2000/svg"
   xmlns:xlink="http://www.w3.org/1999/xlink"
   xmlns:sodipodi="http://sodipodi.sourceforge.net/DTD/sodipodi-0.dtd"
   xmlns:inkscape="http://www.inkscape.org/namespaces/inkscape"
   width="210"
   height="130"
   viewBox="0 0 55.562499 34.395834"
   version="1.1"
   id="svg8"
   inkscape:version="0.92.5 (2060ec1f9f, 2020-04-08)"
   sodipodi:docname="Tokan.svg">
  <defs
     id="defs2">
    <linearGradient
       inkscape:collect="always"
       id="linearGradient848">
      <stop
         style="stop-color:#00c200;stop-opacity:1"
         offset="0"
         id="stop844" />
      <stop
         style="stop-color:#003700;stop-opacity:1"
         offset="1"
         id="stop846" />
    </linearGradient>
    <linearGradient
       inkscape:collect="always"
       id="linearGradient840">
      <stop
         style="stop-color:#00c200;stop-opacity:1"
         offset="0"
         id="stop836" />
      <stop
         style="stop-color:#003700;stop-opacity:1"
         offset="1"
         id="stop838" />
    </linearGradient>
    <radialGradient
       inkscape:collect="always"
       xlink:href="#linearGradient840"
       id="radialGradient842"
       cx="-38.094467"
       cy="105.50366"
       fx="-38.094467"
       fy="105.50366"
       r="74.250244"
       gradientTransform="matrix(-0.70588396,-0.3675679,0.10221047,-0.1962868,16.01355,297.36899)"
       gradientUnits="userSpaceOnUse" />
    <linearGradient
       inkscape:collect="always"
       xlink:href="#linearGradient848"
       id="linearGradient850"
       x1="183.05394"
       y1="190.18059"
       x2="36.210121"
       y2="113.71608"
       gradientUnits="userSpaceOnUse"
       gradientTransform="matrix(0.35692382,0,0,0.35692382,-11.648909,222.78233)" />
  </defs>
  <sodipodi:namedview
     id="base"
     pagecolor="#ffffff"
     bordercolor="#666666"
     borderopacity="1.0"
     inkscape:pageopacity="0.0"
     inkscape:pageshadow="2"
     inkscape:zoom="2.8"
     inkscape:cx="103.78977"
     inkscape:cy="58.854797"
     inkscape:document-units="mm"
     inkscape:current-layer="layer1"
     showgrid="false"
     units="px"
     inkscape:window-width="1366"
     inkscape:window-height="704"
     inkscape:window-x="0"
     inkscape:window-y="27"
     inkscape:window-maximized="1" />
  <metadata
     id="metadata5">
    <rdf:RDF>
      <cc:Work
         rdf:about="">
        <dc:format>image/svg+xml</dc:format>
        <dc:type
           rdf:resource="http://purl.org/dc/dcmitype/StillImage" />
        <dc:title></dc:title>
      </cc:Work>
    </rdf:RDF>
  </metadata>
  <g
     inkscape:label="Layer 1"
     inkscape:groupmode="layer"
     id="layer1"
     transform="translate(0,-262.60415)">
    <path
       style="fill:url(#linearGradient850);fill-opacity:1;stroke:url(#radialGradient842);stroke-width:0.09443609"
       d="M 1.2753461,279.80219 V 263.37031 H 27.777025 54.278708 l -0.05854,0.35413 c -0.03219,0.19478 -0.059,6.41871 -0.05957,13.83095 l -0.0011,13.47682 -6.020302,0.0276 c -3.311165,0.0151 -6.370894,0.0137 -6.799396,-0.003 l -0.7791,-0.0308 v -4.64638 c 0,-4.0525 -0.01877,-4.67321 -0.147006,-4.85627 -0.188913,-0.2697 -0.537784,-0.26859 -0.815696,0.002 l -0.217749,0.21248 0.02716,4.46211 0.02716,4.4621 h 0.239121 c 0.193963,0 0.233425,0.0401 0.208947,0.21248 -0.02441,0.17193 -0.08876,0.21148 -0.337097,0.20724 -2.264085,-0.0387 -2.195638,-0.0315 -2.195638,-0.23084 0,-0.13851 0.06296,-0.18888 0.236091,-0.18888 h 0.236091 v -4.62736 -4.62737 h -0.236091 c -0.173133,0 -0.236091,-0.0504 -0.236091,-0.18887 0,-0.17689 0.06296,-0.18888 0.991577,-0.18888 0.825119,0 0.991581,0.0242 0.991581,0.14384 0,0.12299 0.03701,0.11958 0.255547,-0.0236 0.179315,-0.11749 0.441133,-0.16744 0.877686,-0.16744 0.706559,0 0.968902,0.12775 1.386646,0.67525 l 0.265986,0.3486 0.02806,4.32793 0.02805,4.32792 h 5.756167 5.756168 v -13.4099 -13.40992 H 27.764668 1.8419627 v 14.44872 14.44872 H 20.918052 39.994146 v 0.23609 0.23609 H 20.918052 1.8419627 v 1.51098 1.51098 H 1.5586544 1.2753461 Z m 21.8909469,11.19083 c -0.511226,-0.18792 -0.871553,-0.48531 -1.125941,-0.9293 l -0.225157,-0.39296 v -3.63579 -3.63579 l 0.229142,-0.40006 c 0.892742,-1.55863 3.589896,-1.27903 4.062024,0.42109 0.133968,0.48242 0.132986,6.75062 -0.0011,7.23362 -0.128003,0.46097 -0.687881,1.08327 -1.17364,1.3045 -0.446872,0.20352 -1.262378,0.21955 -1.765293,0.0347 z m 1.345939,-0.53004 c 0.06002,-0.11214 0.08474,-1.75938 0.06797,-4.52904 -0.02534,-4.1836 -0.03348,-4.35801 -0.209668,-4.48679 -0.264963,-0.19366 -0.656865,-0.16459 -0.863822,0.0641 -0.171623,0.18964 -0.177892,0.38382 -0.147097,4.55654 0.01949,2.64169 0.06844,4.40272 0.124266,4.47083 0.203518,0.24832 0.881677,0.19844 1.028355,-0.0756 z m 3.206225,0.58223 c -0.843678,-0.0446 -0.99525,-0.0769 -1.022112,-0.21761 -0.02449,-0.12839 0.03323,-0.16526 0.258695,-0.16526 h 0.290229 v -6.37444 -6.37444 h -0.236087 c -0.173133,0 -0.236091,-0.0504 -0.236091,-0.18887 0,-0.1761 0.06296,-0.18887 0.930907,-0.18887 h 0.930908 l 0.06067,0.58047 c 0.03337,0.31926 0.06067,2.04915 0.06067,3.84421 v 3.26375 l 0.944363,-1.8619 c 0.5194,-1.02404 0.94436,-1.88277 0.94436,-1.90828 0,-0.0255 -0.106238,-0.0464 -0.236087,-0.0464 -0.173133,0 -0.236091,-0.0504 -0.236091,-0.18887 0,-0.17209 0.06296,-0.18888 0.708269,-0.18888 0.637205,0 0.708273,0.0183 0.708273,0.18261 0,0.12795 -0.07618,0.19154 -0.254537,0.21248 -0.229477,0.0269 -0.322545,0.17731 -0.945274,1.52738 -0.780335,1.69175 -0.759658,1.40771 -0.223773,3.07394 0.14353,0.44628 0.489874,1.67196 0.769656,2.72375 l 0.508695,1.91233 h 0.268057 c 0.223966,0 0.263092,0.0349 0.237879,0.21248 -0.02937,0.20692 -0.05488,0.21156 -0.974537,0.17729 -0.534605,-0.0199 -0.972404,-0.0795 -1.008985,-0.13719 -0.06191,-0.0977 -0.157803,-0.43587 -0.875038,-3.08567 l -0.319515,-1.18045 -0.0079,2.00677 -0.0079,2.00677 h 0.236091 c 0.188869,0 0.236091,0.0472 0.236091,0.23609 0,0.19908 -0.04072,0.23319 -0.259702,0.2176 -0.142834,-0.0102 -0.705456,-0.042 -1.250272,-0.0708 z m 5.495824,-0.0988 c -0.319136,-0.14485 -0.445973,-0.27567 -0.59592,-0.61465 -0.17299,-0.39107 -0.187799,-0.59306 -0.161187,-2.19843 0.02805,-1.69283 0.03895,-1.78132 0.256693,-2.08662 0.294819,-0.41337 0.890129,-0.67055 1.71155,-0.73942 l 0.658053,-0.0552 -0.0021,-1.52089 c -0.0025,-1.5715 -0.08238,-2.19936 -0.297835,-2.33597 -0.207797,-0.13175 -0.445041,-0.0924 -0.644269,0.10681 -0.169149,0.16914 -0.188848,0.31461 -0.188652,1.39293 l 1.89e-4,1.20406 -0.766643,-0.0311 -0.766648,-0.0312 0.03996,-0.86601 c 0.04964,-1.07561 0.233567,-1.49847 0.811099,-1.86472 0.865026,-0.54859 2.103291,-0.43146 2.777809,0.26275 0.191436,0.19703 0.393095,0.47786 0.448125,0.62408 0.06484,0.17227 0.10006,1.70969 0.10006,4.36767 v 4.10182 h 0.236091 c 0.187799,0 0.236091,0.0475 0.236091,0.23214 v 0.23214 l -0.96797,-0.0575 c -0.532384,-0.0316 -0.995218,-0.0992 -1.028519,-0.15026 -0.0369,-0.0565 -0.146567,-0.0325 -0.280714,0.0615 -0.301329,0.21106 -1.071903,0.19445 -1.575144,-0.0339 z m 1.696491,-0.44032 c 0.158478,-0.14343 0.172698,-0.34947 0.172698,-2.50256 v -2.34626 h -0.356731 c -0.196205,0 -0.451181,0.0661 -0.566617,0.147 -0.206548,0.14467 -0.209885,0.18155 -0.209885,2.3199 0,1.31722 0.0385,2.24481 0.09776,2.35554 0.123074,0.22997 0.620993,0.24519 0.862777,0.0264 z m -18.242344,-5.80024 c 0,-3.4934 -0.02664,-6.32501 -0.05919,-6.29245 -0.08458,0.0846 -0.568739,-0.18293 -0.632687,-0.34957 -0.06189,-0.16129 -0.22733,-0.12359 -1.196844,0.27277 -0.337609,0.13802 -0.741108,0.30115 -0.896666,0.3625 -0.638034,0.25164 -3.156767,1.56011 -3.484898,1.81039 -1.7937255,1.36814 -3.1049758,3.62992 -3.4634369,5.97409 -0.057582,0.37657 -0.145278,0.68466 -0.1948786,0.68466 -0.049601,0 -0.067892,-0.13811 -0.040647,-0.30692 0.027244,-0.1688 0.093697,-0.6993 0.1476726,-1.17887 0.053975,-0.47958 0.1360612,-0.97171 0.1824131,-1.09363 0.046352,-0.12191 0.157135,-0.51571 0.2461835,-0.8751 0.2197088,-0.88673 1.0003262,-2.57699 1.5883878,-3.43931 1.10975,-1.62732 2.8578165,-2.99596 5.0659445,-3.96635 0.778138,-0.34196 1.412656,-0.64949 2.478947,-1.20147 l 0.259699,-0.13444 v -1.0791 -1.0791 h -1.441043 c -1.338768,0 -1.449414,0.0134 -1.558996,0.18888 -0.121982,0.19532 -0.39966,0.26093 -0.39966,0.0944 0,-0.0519 0.0425,-0.0944 0.09444,-0.0944 0.182872,0 0.09157,-0.15986 -0.155631,-0.2725 -0.19007,-0.0866 -0.413553,-0.0892 -0.931455,-0.0107 -0.668444,0.10133 -1.863202,0.003 -3.3986281,-0.2797 -1.1914617,-0.21938 -2.3468394,0.0137 -3.0495136,0.61515 -0.4719357,0.40396 -0.502215,0.32719 -0.1065524,-0.27015 0.8678385,-1.3102 2.0074559,-1.61162 3.8663532,-1.02261 1.5404269,0.48809 2.7979129,0.6256 3.1671519,0.34632 0.100822,-0.0763 0.140817,-0.14131 0.08888,-0.14457 -0.706259,-0.0443 -1.679852,-0.25997 -2.792882,-0.61878 -1.5291875,-0.49297 -2.5013213,-0.69526 -3.3644249,-0.70012 -0.6613149,-0.004 -1.4596332,0.1438 -1.846152,0.34114 -0.3268894,0.16691 -0.3252354,0.11534 0.012018,-0.37463 1.0078647,-1.46427 2.6697249,-2.19895 4.804223,-2.12389 0.5323829,0.0187 0.9679699,0.005 0.9679699,-0.0308 0,-0.12978 -0.57049,-0.54042 -0.9034379,-0.6503 -0.505725,-0.16691 -0.263175,-0.32049 0.5026409,-0.31828 0.65049,0.002 1.439185,0.21618 2.464597,0.66967 l 0.507098,0.22426 7.024927,-0.005 7.024925,-0.005 v 2.22094 2.22094 h -1.136195 c -0.897003,0 -1.147082,0.0284 -1.187911,0.13476 -0.07417,0.19329 -0.78399,0.50466 -1.574752,0.69078 -0.582942,0.13721 -0.787058,0.24573 -1.413975,0.75177 -0.402976,0.32528 -0.849186,0.66429 -0.991579,0.75336 -0.142392,0.0891 -0.280143,0.17833 -0.306113,0.19836 -0.02597,0.02 -0.07085,3.51642 -0.09974,7.76977 -0.02888,4.25335 -0.08549,7.76639 -0.125789,7.80675 -0.0403,0.0404 -0.898462,0.0879 -1.907029,0.1057 l -1.83376,0.0323 z"
       id="path826"
       inkscape:connector-curvature="0" />
  </g>
</svg>
